<svg viewBox="0 0 32 32" style="enable-background:new 0 0 32 32;" xml:space="preserve">
                                    <path fill="#202122" d="M22.3,3.6c-0.4-0.4-0.8-0.8-1.4-1.1l0.8-1.7c0.1-0.3,0-0.6-0.3-0.7c-0.3-0.1-0.6,0-0.7,0.3L20,1.9
                                    c-1-0.5-2.3-0.9-3.9-0.9c-1.6,0-3,0.3-4.1,0.9l-0.8-1.6C11.1,0,10.8-0.1,10.5,0c-0.3,0.1-0.4,0.4-0.3,0.7l0.8,1.7
                                    C8.8,3.9,7.7,6.2,7.6,7.9L7.5,8.5h16.9l-0.1-0.6C24.3,6.8,23.7,5.1,22.3,3.6z M8.7,7.5c0.5-2.3,2.7-5.3,7.4-5.3
                                    c1.5,0,2.7,0.4,3.7,0.9c0,0,0.1,0.1,0.2,0.1c0,0,0.1,0,0.1,0c1.9,1.1,2.9,3,3.2,4.3H8.7z M3.9,9.6c-1.5,0-2.6,1.2-2.6,2.7v7.5
                                    c0,1.5,1.2,2.7,2.6,2.7s2.6-1.2,2.6-2.7v-7.5C6.5,10.8,5.4,9.6,3.9,9.6z M5.5,19.7c0,0.9-0.7,1.6-1.6,1.6c-0.9,0-1.6-0.7-1.6-1.6
                                    v-7.5c0-0.9,0.7-1.6,1.6-1.6c0.9,0,1.6,0.7,1.6,1.6V19.7z M28.1,9.6c-1.5,0-2.6,1.2-2.6,2.7v7.5c0,1.5,1.2,2.7,2.6,2.7
                                    s2.6-1.2,2.6-2.7v-7.5C30.7,10.8,29.6,9.6,28.1,9.6z M29.7,19.7c0,0.9-0.7,1.6-1.6,1.6c-0.9,0-1.6-0.7-1.6-1.6v-7.5
                                    c0-0.9,0.7-1.6,1.6-1.6c0.9,0,1.6,0.7,1.6,1.6V19.7z M7.6,25.1h2.1v4.8c0,1.2,0.9,2.1,2.1,2.1c1.2,0,2.1-1,2.1-2.1v-4.8h4.2v4.8
                                    c0,1.2,0.9,2.1,2.1,2.1c1.2,0,2.1-1,2.1-2.1v-4.8h2.1V9.6H7.6V25.1z M8.6,10.7h14.7V24h-2.1v5.9c0,0.6-0.5,1.1-1.1,1.1
                                    c-0.6,0-1.1-0.5-1.1-1.1V24h-6.3v5.9c0,0.6-0.5,1.1-1.1,1.1c-0.6,0-1.1-0.5-1.1-1.1V24H8.6V10.7z M13.4,4.3
                                    c-0.6,0-1.1,0.5-1.1,1.1c0,0.6,0.5,1.1,1.1,1.1c0.6,0,1.1-0.5,1.1-1.1C14.4,4.7,13.9,4.3,13.4,4.3z M18.6,4.3
                                    c-0.6,0-1.1,0.5-1.1,1.1c0,0.6,0.5,1.1,1.1,1.1c0.6,0,1.1-0.5,1.1-1.1C19.7,4.7,19.2,4.3,18.6,4.3z"></path>
                                 </svg>