
<svg id="crossplatform" data-name="Layer 1" xmlns="http://www.w3.org/2000/svg" viewBox="0 0 142.5 92.83"
height="100" width="300" style="enable-background:new 0 0 80 80;svg:hover:0 0 0 0;" >

<defs>

<style>
.cls-1{fill:none;}
.cls-1,.cls-2{stroke:#231f20;stroke-miterlimit:10;}
.cls-2{fill:#fff;}

</style>
</defs>

<path class="cls-1" d="M131.47,4.69V45.45H112.22A3.55,3.55,0,0,0,108.67,49V65.88H104.8a3.55,3.55,0,0,0-3.55,3.55v7.63H4.69A4.2,4.2,0,0,1,.5,72.87V4.69A4.2,4.2,0,0,1,4.69.5H127.28A4.2,4.2,0,0,1,131.47,4.69Z" transform="translate(0 0)"/><path class="cls-1" d="M138.45,45.45H112.22A3.55,3.55,0,0,0,108.67,49V65.88h3.76A3.55,3.55,0,0,1,116,69.43V88.68h22.47A3.55,3.55,0,0,0,142,85.13V49A3.55,3.55,0,0,0,138.45,45.45ZM125.88,86.79a1.24,1.24,0,1,1,1.24-1.24A1.25,1.25,0,0,1,125.88,86.79Z" transform="translate(0 0)"/><path class="cls-1" d="M127.12,85.55a1.24,1.24,0,1,1-1.24-1.24A1.25,1.25,0,0,1,127.12,85.55Z" transform="translate(0 0)"/><path class="cls-1" d="M112.43,65.88H104.8a3.55,3.55,0,0,0-3.55,3.55V88.78a3.55,3.55,0,0,0,3.55,3.55h7.63A3.55,3.55,0,0,0,116,88.78V69.43A3.55,3.55,0,0,0,112.43,65.88Zm-3.6,25a1.24,1.24,0,1,1,1.24-1.24A1.25,1.25,0,0,1,108.83,90.83Z" transform="translate(0 0)"/><circle class="cls-1" cx="108.83" cy="89.59" r="1.24"/><circle class="cls-2" cx="108.83" cy="89.59" r="1.24"/><path class="cls-2" d="M127.12,85.55a1.24,1.24,0,1,1-1.24-1.24A1.25,1.25,0,0,1,127.12,85.55Z" transform="translate(0 0)"/><line class="cls-1" x1="66.09" y1="77.06" x2="66.09" y2="89.75"/><line class="cls-1" x1="77.49" y1="89.53" x2="53.62" y2="89.32"/></svg>

