<?xml version="1.0" encoding="utf-8"?>
<!-- Generator: Adobe Illustrator 23.0.3, SVG Export Plug-In . SVG Version: 6.00 Build 0)  -->
<svg version="1.1" id="Layer_1" xmlns="http://www.w3.org/2000/svg" xmlns:xlink="http://www.w3.org/1999/xlink" x="0px" y="0px"
	 viewBox="0 0 250 250" style="enable-background:new 0 0 250 250;" xml:space="preserve">
<style type="text/css">
	.st0{fill:#EE4623;}
</style>
<path class="st0" d="M88,250c-15-6.5-29-23-29.1-39.8c-0.1-18.4,11.6-34,26.1-44.2c-1.7,6.6-2.7,12.6,1.6,18.5
	c4,5.5,11.1,8.1,17.6,6.7c15.5-3.4,16.2-20.4,7-30.4c-9.1-9.8-17.9-20.9-14.4-35.2c1.7-7.1,6.1-13.9,11.7-18.6
	c-4.3,11.2,7.9,22.3,15.8,27.8c13.9,9.6,29.1,16.8,41.9,28c13.4,11.8,23.4,27.7,21.3,46.2c-2.2,20.1-18.1,34-36,41
	c37.8-8.3,76.7-37.6,77.5-79.5c0.7-34.4-23-60.9-52.2-76.1l-1.6-0.8c0.8,1.9,1.1,3.6,1.1,5.1c0.2-1.1,0.4-2.2,0.5-3.4
	c0,1.4-0.2,2.8-0.6,4.1l0.1-0.7c-0.4,1.9-1.2,3.6-2.2,5.2l0.4-0.4c-5.8,9.7-21.6,11.8-29.4,1.7c-12.5-16.1,0.2-33.5,2-50.6
	c2.2-21.4-11.2-42.2-27.8-54.6c9.2,14.8-2.9,34.5-12.5,45.4C97.5,56,86.1,64.9,75.8,74.6C64.7,85,54,95.9,44.8,108.1
	c-18.3,24.3-29.4,55-21.2,85.4C32,223.9,58.3,243.2,88,250L88,250z"/>
</svg>
