<?xml version="1.0" encoding="utf-8"?>
<!-- Generator: Adobe Illustrator 23.0.3, SVG Export Plug-In . SVG Version: 6.00 Build 0)  -->
<svg version="1.1" id="Layer_1" xmlns="http://www.w3.org/2000/svg" xmlns:xlink="http://www.w3.org/1999/xlink" x="0px" y="0px"
	 viewBox="0 0 250 250" style="enable-background:new 0 0 250 250;" xml:space="preserve">
<style type="text/css">
	.st0{fill:#F05146;}
	.st1{fill:#FFFFFF;}
</style>
<rect class="st0" width="250" height="250"/>
<path class="st1" d="M236.1,120c-1.6-1.6-22.1-27.4-25.6-31.7c-3.7-4.3-5.3-3.5-7.7-3.2c-2.4,0.3-28.2,4.8-31.1,5.1
	c-2.9,0.5-4.8,1.6-2.9,4.3c1.6,2.4,18.6,26.4,22.4,31.9l-67.9,16.2L69.4,52.4c-2.1-3.2-2.7-4.3-7.5-4c-4.8,0.3-42.3,3.5-45,3.5
	c-2.7,0.3-5.6,1.3-2.9,7.7s45.2,97.9,46.3,100.6c1.1,2.7,4.3,6.9,11.4,5.3c7.5-1.9,33-8.5,47.1-12.2c7.5,13.3,22.4,40.5,25.3,44.4
	c3.7,5.3,6.4,4.3,12,2.7c4.5-1.3,69.7-24.8,72.7-26.1s4.8-2.1,2.7-5.1c-1.6-2.1-18.6-25.3-27.7-37.3c6.1-1.6,28.2-7.5,30.6-8.3
	C237.1,122.9,237.7,121.6,236.1,120z M112.8,145.3c-0.8,0.3-38.9,9.3-40.7,9.8c-2.1,0.5-2.1,0.3-2.1-0.5c-0.5-0.8-45.2-93.4-46-94.5
	c-0.5-1.1-0.5-2.1,0-2.1s35.9-3.2,37-3.2c1.3,0,1.1,0.3,1.6,1.1c0,0,49.8,86,50.6,87.3C114.2,144.5,113.6,145,112.8,145.3z
	 M219.8,165.2c0.5,1.1,1.3,1.6-0.8,2.1c-1.9,0.8-64.1,21.8-65.5,22.4c-1.3,0.5-2.1,0.8-3.7-1.6c-1.6-2.4-21.8-37.3-21.8-37.3
	l66.3-17.3c1.6-0.5,2.1-0.8,3.2,0.8C198.5,136.2,219.3,164.4,219.8,165.2z M224.1,118.4c-1.6,0.3-25.8,6.4-25.8,6.4l-20-27.1
	c-0.5-0.8-1.1-1.6,0.3-1.9c1.3-0.3,24-4.3,25-4.5s1.9-0.5,3.2,1.3c1.3,1.6,18.4,23.4,19.2,24.2C226.8,117.6,225.7,118.1,224.1,118.4
	z"/>
</svg>
