<?xml version="1.0" encoding="utf-8"?>
<!-- Generator: Adobe Illustrator 23.0.3, SVG Export Plug-In . SVG Version: 6.00 Build 0)  -->
<svg version="1.1" id="Layer_1" xmlns="http://www.w3.org/2000/svg" xmlns:xlink="http://www.w3.org/1999/xlink" x="0px" y="0px"
	 viewBox="0 0 250 250" style="enable-background:new 0 0 250 250;" xml:space="preserve">
<style type="text/css">
	.st0{fill:#679E63;}
	.st1{fill-rule:evenodd;clip-rule:evenodd;fill:#333333;}
	.st2{fill-rule:evenodd;clip-rule:evenodd;fill:#679E63;}
	.st3{clip-path:url(#XMLID_5_);}
	.st4{fill:none;}
	.st5{fill:url(#SVGID_1_);}
	.st6{fill:url(#SVGID_2_);}
	.st7{fill:url(#SVGID_3_);}
	.st8{fill:url(#SVGID_4_);}
	.st9{fill:url(#SVGID_5_);}
	.st10{fill:url(#SVGID_6_);}
</style>
<g>
	<g>
		<path class="st0" d="M123.6,201.4c-0.8,0-1.6-0.2-2.4-0.6l-7.5-4.4c-1.1-0.6-0.6-0.9-0.2-1c1.5-0.5,1.8-0.6,3.4-1.5
			c0.2-0.1,0.4-0.1,0.6,0l5.8,3.4c0.2,0.1,0.5,0.1,0.7,0l22.5-13c0.2-0.1,0.3-0.4,0.3-0.6v-26c0-0.3-0.1-0.5-0.3-0.6l-22.5-13
			c-0.2-0.1-0.5-0.1-0.7,0l-22.5,13c-0.2,0.1-0.4,0.4-0.4,0.6v26c0,0.2,0.1,0.5,0.4,0.6l6.2,3.6c3.3,1.7,5.4-0.3,5.4-2.3v-25.7
			c0-0.4,0.3-0.6,0.7-0.6h2.9c0.4,0,0.7,0.3,0.7,0.6v25.7c0,4.5-2.4,7-6.7,7c-1.3,0-2.3,0-5.2-1.4l-5.9-3.4
			c-1.5-0.8-2.4-2.4-2.4-4.1v-26c0-1.7,0.9-3.3,2.4-4.1l22.5-13c1.4-0.8,3.3-0.8,4.7,0l22.5,13c1.5,0.8,2.4,2.4,2.4,4.1v26
			c0,1.7-0.9,3.3-2.4,4.1l-22.5,13C125.2,201.1,124.4,201.4,123.6,201.4z"/>
		<path class="st0" d="M130.5,183.5c-9.9,0-11.9-4.5-11.9-8.3c0-0.4,0.3-0.6,0.7-0.6h2.9c0.3,0,0.6,0.2,0.6,0.6
			c0.4,3,1.8,4.5,7.7,4.5c4.7,0,6.8-1.1,6.8-3.6c0-1.5-0.6-2.5-7.9-3.2c-6.2-0.6-10-2-10-6.9c0-4.5,3.8-7.3,10.3-7.3
			c7.2,0,10.8,2.5,11.2,7.9c0,0.2,0,0.4-0.2,0.5c-0.1,0.1-0.3,0.2-0.5,0.2h-2.9c-0.3,0-0.6-0.2-0.6-0.5c-0.7-3.1-2.4-4.1-7-4.1
			c-5.2,0-5.8,1.8-5.8,3.2c0,1.6,0.7,2.1,7.7,3c6.9,0.9,10.2,2.2,10.2,7.1C141.8,180.6,137.7,183.5,130.5,183.5z"/>
	</g>
	<g>
		<path class="st0" d="M163,156.2c0,2.4-2,4.3-4.3,4.3c-2.4,0-4.3-1.9-4.3-4.3c0-2.5,2-4.3,4.3-4.3C161,151.9,163,153.7,163,156.2z
			 M155,156.2c0,2,1.6,3.7,3.6,3.7c2,0,3.7-1.7,3.7-3.7c0-2-1.7-3.6-3.7-3.6C156.7,152.6,155,154.1,155,156.2z M157,153.8h1.7
			c0.6,0,1.7,0,1.7,1.3c0,0.9-0.6,1.1-0.9,1.2c0.7,0,0.7,0.5,0.8,1.1c0,0.4,0.1,1.1,0.3,1.3h-1c0-0.2-0.2-1.5-0.2-1.5
			c-0.1-0.3-0.2-0.4-0.5-0.4H158v2H157V153.8z M157.9,155.9h0.8c0.6,0,0.7-0.4,0.7-0.7c0-0.7-0.5-0.7-0.7-0.7h-0.8V155.9z"/>
	</g>
	<path class="st1" d="M53.8,99.7c0-1-0.5-2-1.4-2.5L28.5,83.4c-0.4-0.2-0.9-0.4-1.3-0.4c0,0-0.2,0-0.2,0c-0.5,0-0.9,0.1-1.3,0.4
		L1.8,97.2c-0.9,0.5-1.4,1.5-1.4,2.5l0.1,37c0,0.5,0.3,1,0.7,1.2c0.4,0.3,1,0.3,1.4,0l14.2-8.1c0.9-0.5,1.4-1.5,1.4-2.5V110
		c0-1,0.5-2,1.4-2.5l6-3.5c0.5-0.3,0.9-0.4,1.4-0.4c0.5,0,1,0.1,1.4,0.4l6,3.5C35.5,108,36,109,36,110v17.3c0,1,0.6,2,1.4,2.5
		l14.2,8.1c0.4,0.3,1,0.3,1.4,0c0.4-0.3,0.7-0.7,0.7-1.2L53.8,99.7z"/>
	<path class="st1" d="M168.7,48.8c-0.4-0.2-1-0.2-1.4,0c-0.4,0.3-0.7,0.7-0.7,1.2v36.6c0,0.4-0.2,0.7-0.5,0.9c-0.3,0.2-0.7,0.2-1,0
		l-6-3.4c-0.9-0.5-2-0.5-2.9,0l-23.9,13.8c-0.9,0.5-1.4,1.5-1.4,2.5V128c0,1,0.5,2,1.4,2.5l23.9,13.8c0.9,0.5,2,0.5,2.9,0l23.9-13.8
		c0.9-0.5,1.4-1.5,1.4-2.5V59.3c0-1-0.6-2-1.5-2.5L168.7,48.8z M166.5,118.9c0,0.3-0.1,0.5-0.4,0.6l-8.2,4.7c-0.2,0.1-0.5,0.1-0.7,0
		l-8.2-4.7c-0.2-0.1-0.4-0.4-0.4-0.6v-9.5c0-0.3,0.1-0.5,0.4-0.6l8.2-4.7c0.2-0.1,0.5-0.1,0.7,0l8.2,4.7c0.2,0.1,0.4,0.4,0.4,0.6
		V118.9z"/>
	<g>
		<path class="st1" d="M248.2,109.2c0.9-0.5,1.4-1.5,1.4-2.5v-6.7c0-1-0.5-2-1.4-2.5l-23.7-13.8c-0.9-0.5-2-0.5-2.9,0l-23.9,13.8
			c-0.9,0.5-1.4,1.5-1.4,2.5v27.6c0,1,0.6,2,1.5,2.5l23.7,13.5c0.9,0.5,1.9,0.5,2.8,0l14.4-8c0.5-0.3,0.7-0.7,0.7-1.3
			c0-0.5-0.3-1-0.7-1.3l-24-13.8c-0.4-0.3-0.7-0.7-0.7-1.3v-8.6c0-0.5,0.3-1,0.7-1.2l7.5-4.3c0.4-0.3,1-0.3,1.4,0l7.5,4.3
			c0.4,0.3,0.7,0.7,0.7,1.2v6.8c0,0.5,0.3,1,0.7,1.3c0.4,0.3,1,0.3,1.4,0L248.2,109.2z"/>
		<path class="st2" d="M222.7,107.9c0.2-0.1,0.4-0.1,0.6,0l4.6,2.6c0.2,0.1,0.3,0.3,0.3,0.5v5.3c0,0.2-0.1,0.4-0.3,0.5l-4.6,2.6
			c-0.2,0.1-0.4,0.1-0.6,0l-4.6-2.6c-0.2-0.1-0.3-0.3-0.3-0.5v-5.3c0-0.2,0.1-0.4,0.3-0.5L222.7,107.9z"/>
	</g>
	<g>
		<defs>
			<path id="XMLID_143_" d="M93.8,83.9c-0.9-0.5-2-0.5-2.9,0L67.2,97.6c-0.9,0.5-1.4,1.5-1.4,2.5v27.4c0,1,0.5,2,1.4,2.5l23.7,13.7
				c0.9,0.5,2,0.5,2.9,0l23.7-13.7c0.9-0.5,1.4-1.5,1.4-2.5v-27.4c0-1-0.5-2-1.4-2.5L93.8,83.9z"/>
		</defs>
		<linearGradient id="XMLID_4_" gradientUnits="userSpaceOnUse" x1="102.0082" y1="94.1301" x2="80.5523" y2="137.9002">
			<stop  offset="0" style="stop-color:#3F873F"/>
			<stop  offset="0.3296" style="stop-color:#3F8B3D"/>
			<stop  offset="0.6367" style="stop-color:#3E9638"/>
			<stop  offset="0.9341" style="stop-color:#3DA92E"/>
			<stop  offset="1" style="stop-color:#3DAE2B"/>
		</linearGradient>
		<use xlink:href="#XMLID_143_"  style="overflow:visible;fill-rule:evenodd;clip-rule:evenodd;fill:url(#XMLID_4_);"/>
		<clipPath id="XMLID_5_">
			<use xlink:href="#XMLID_143_"  style="overflow:visible;"/>
		</clipPath>
		<g class="st3">
			<path class="st4" d="M90.9,83.9L67.1,97.6c-0.9,0.5-1.5,1.5-1.5,2.5v27.4c0,0.7,0.3,1.3,0.7,1.8L93,83.6
				C92.3,83.4,91.5,83.5,90.9,83.9z"/>
			<path class="st4" d="M93.2,144c0.2-0.1,0.5-0.2,0.7-0.3l23.8-13.7c0.9-0.5,1.5-1.5,1.5-2.5v-27.4c0-0.8-0.3-1.5-0.9-2L93.2,144z"
				/>
			<linearGradient id="SVGID_1_" gradientUnits="userSpaceOnUse" x1="88.7372" y1="117.0369" x2="148.9409" y2="72.5552">
				<stop  offset="0.1376" style="stop-color:#3F873F"/>
				<stop  offset="0.4016" style="stop-color:#52A044"/>
				<stop  offset="0.7129" style="stop-color:#64B749"/>
				<stop  offset="0.9081" style="stop-color:#6ABF4B"/>
			</linearGradient>
			<path class="st5" d="M117.6,97.6L93.8,83.9c-0.2-0.1-0.5-0.2-0.7-0.3l-26.7,45.7c0.2,0.3,0.5,0.5,0.8,0.7l23.9,13.7
				c0.7,0.4,1.5,0.5,2.2,0.3l25.1-45.9C118,97.9,117.8,97.8,117.6,97.6z"/>
		</g>
		<g class="st3">
			<path class="st4" d="M119.1,127.5v-27.4c0-1-0.6-2-1.5-2.5L93.8,83.9c-0.3-0.2-0.6-0.3-0.9-0.3l26.1,44.6
				C119.1,128,119.1,127.8,119.1,127.5z"/>
			<path class="st4" d="M67.1,97.6c-0.9,0.5-1.5,1.5-1.5,2.5v27.4c0,1,0.7,2,1.5,2.5l23.9,13.7c0.6,0.3,1.2,0.4,1.8,0.4L67.2,97.5
				L67.1,97.6z"/>
			<linearGradient id="SVGID_2_" gradientUnits="userSpaceOnUse" x1="64.8967" y1="78.9786" x2="119.8074" y2="78.9786">
				<stop  offset="9.191646e-02" style="stop-color:#6ABF4B"/>
				<stop  offset="0.2871" style="stop-color:#64B749"/>
				<stop  offset="0.5984" style="stop-color:#52A044"/>
				<stop  offset="0.8624" style="stop-color:#3F873F"/>
			</linearGradient>
			<polygon class="st6" points="90.1,78.9 89.8,79.1 90.2,79.1 			"/>
			<linearGradient id="SVGID_3_" gradientUnits="userSpaceOnUse" x1="64.8967" y1="113.823" x2="119.8074" y2="113.823">
				<stop  offset="9.191646e-02" style="stop-color:#6ABF4B"/>
				<stop  offset="0.2871" style="stop-color:#64B749"/>
				<stop  offset="0.5984" style="stop-color:#52A044"/>
				<stop  offset="0.8624" style="stop-color:#3F873F"/>
			</linearGradient>
			<path class="st7" d="M117.6,130c0.7-0.4,1.2-1.1,1.4-1.8L92.9,83.6c-0.7-0.1-1.4,0-2,0.3L67.2,97.5l25.6,46.6
				c0.4,0,0.7-0.2,1-0.4L117.6,130z"/>
			<linearGradient id="SVGID_4_" gradientUnits="userSpaceOnUse" x1="64.8967" y1="129.4989" x2="119.8074" y2="129.4989">
				<stop  offset="9.191646e-02" style="stop-color:#6ABF4B"/>
				<stop  offset="0.2871" style="stop-color:#64B749"/>
				<stop  offset="0.5984" style="stop-color:#52A044"/>
				<stop  offset="0.8624" style="stop-color:#3F873F"/>
			</linearGradient>
			<polygon class="st8" points="119.8,129.6 119.7,129.3 119.7,129.7 			"/>
			<linearGradient id="SVGID_5_" gradientUnits="userSpaceOnUse" x1="64.8967" y1="136.584" x2="119.8074" y2="136.584">
				<stop  offset="9.191646e-02" style="stop-color:#6ABF4B"/>
				<stop  offset="0.2871" style="stop-color:#64B749"/>
				<stop  offset="0.5984" style="stop-color:#52A044"/>
				<stop  offset="0.8624" style="stop-color:#3F873F"/>
			</linearGradient>
			<path class="st9" d="M117.6,130l-23.8,13.7c-0.3,0.2-0.7,0.3-1,0.4l0.5,0.9l26.4-15.3v-0.4l-0.7-1.1
				C118.8,129,118.3,129.6,117.6,130z"/>
			<linearGradient id="SVGID_6_" gradientUnits="userSpaceOnUse" x1="127.8073" y1="92.8325" x2="93.9418" y2="161.918">
				<stop  offset="0" style="stop-color:#3F873F"/>
				<stop  offset="0.3296" style="stop-color:#3F8B3D"/>
				<stop  offset="0.6367" style="stop-color:#3E9638"/>
				<stop  offset="0.9341" style="stop-color:#3DA92E"/>
				<stop  offset="1" style="stop-color:#3DAE2B"/>
			</linearGradient>
			<path class="st10" d="M117.6,130l-23.8,13.7c-0.3,0.2-0.7,0.3-1,0.4l0.5,0.9l26.4-15.3v-0.4l-0.7-1.1
				C118.8,129,118.3,129.6,117.6,130z"/>
		</g>
	</g>
</g>
</svg>
