<?xml version="1.0" encoding="utf-8"?>
<!-- Generator: Adobe Illustrator 23.0.3, SVG Export Plug-In . SVG Version: 6.00 Build 0)  -->
<svg version="1.1" id="Layer_1" xmlns="http://www.w3.org/2000/svg" xmlns:xlink="http://www.w3.org/1999/xlink" x="0px" y="0px"
	 viewBox="0 0 250 250" style="enable-background:new 0 0 250 250;" xml:space="preserve">
<style type="text/css">
	.st0{clip-path:url(#SVGID_2_);}
	.st1{fill:url(#path3462_1_);}
	.st2{fill:#787BB3;}
	.st3{fill:#010101;}
	.st4{fill:#FFFFFF;}
</style>
<g id="g3438" transform="matrix(1.25,0,0,-1.25,-4.4,394.29875)">
</g>
<g>
	<g id="g3440">
		<g>
			<defs>
				<path id="SVGID_1_" d="M0.4,125c0,66.9,55.8,121.1,124.6,121.1l0,0c68.8,0,124.6-54.2,124.6-121.1l0,0
					C249.6,58.1,193.8,3.9,125,3.9l0,0C56.2,3.9,0.4,58.1,0.4,125"/>
			</defs>
			<clipPath id="SVGID_2_">
				<use xlink:href="#SVGID_1_"  style="overflow:visible;"/>
			</clipPath>
			<g id="g3442" class="st0">
				<g id="g3448">
					<g id="g3450">
						
							<radialGradient id="path3462_1_" cx="0.6842" cy="251.0243" r="0.3606" gradientTransform="matrix(453.8224 0 0 -838.1226 -235.3223 210435.6719)" gradientUnits="userSpaceOnUse">
							<stop  offset="0" style="stop-color:#AFB2D5"/>
							<stop  offset="0.3" style="stop-color:#AFB2D5"/>
							<stop  offset="0.75" style="stop-color:#484D8A"/>
							<stop  offset="1" style="stop-color:#484D8A"/>
						</radialGradient>
						<path id="path3462" class="st1" d="M0.4,125c0,66.9,55.8,121.1,124.6,121.1l0,0c68.8,0,124.6-54.2,124.6-121.1l0,0
							C249.6,58.1,193.8,3.9,125,3.9l0,0C56.2,3.9,0.4,58.1,0.4,125"/>
					</g>
				</g>
			</g>
		</g>
	</g>
	<g id="g3464">
		<g>
			<g id="g3466">
				<g id="g3472" transform="translate(288,27.3594)">
					<path id="path3474" class="st2" d="M-163,209.7c66.1,0,119.8-50.2,119.8-112.1c0-61.9-53.6-112.1-119.8-112.1
						S-282.8,35.7-282.8,97.6C-282.8,159.5-229.1,209.7-163,209.7"/>
				</g>
			</g>
		</g>
	</g>
</g>
<g id="g3478">
	<g id="g3484" transform="translate(161.7344,145.3066)">
		<path id="path3486" class="st3" d="M-95.7-10.9c5.6,0,9.8-1,12.5-3.1c2.6-2,4.4-5.5,5.4-10.4c0.9-4.6,0.5-7.8-1-9.5
			c-1.6-1.8-5-2.6-10.2-2.6h-9l-5,25.6H-95.7z M-125,20.7c-0.4,0-0.8-0.2-1.1-0.5c-0.3-0.3-0.4-0.7-0.3-1.2l13.2-67.9
			c0.1-0.7,0.7-1.1,1.4-1.1h28.4c8.9,0,15.6,2.4,19.8,7.2c4.2,4.8,5.5,11.5,3.9,20c-0.7,3.4-1.8,6.6-3.4,9.5
			c-1.6,2.9-3.7,5.5-6.3,7.9c-3.1,2.9-6.6,5-10.4,6.2c-3.7,1.2-8.5,1.8-14.2,1.8h-11.5l-3.3,16.9c-0.1,0.7-0.7,1.1-1.4,1.1H-125z"/>
	</g>
	<g id="g3488" transform="translate(159.2236,197.3071)">
		<path id="path3490" class="st4" d="M-94.3-87.1h7.8c6.3,0,8.4,1.4,9.2,2.2c1.2,1.4,1.5,4.2,0.7,8.3c-0.9,4.5-2.5,7.8-4.9,9.6
			c-2.4,1.9-6.3,2.8-11.6,2.8h-5.6L-94.3-87.1z M-80.9-103.4h-28.4c-1.3,0-2.5,0.9-2.7,2.3l-13.2,67.9c-0.2,0.8,0.1,1.7,0.6,2.3
			c0.5,0.6,1.3,1,2.2,1h14.8c1.3,0,2.5-0.9,2.7-2.3l3.1-15.8h10.4c5.9,0,10.8-0.6,14.7-1.9c4-1.3,7.6-3.5,10.9-6.5
			c2.7-2.5,4.9-5.2,6.6-8.2c1.7-3,2.9-6.3,3.6-9.9c1.7-8.9,0.3-16-4.2-21.2C-64.5-100.8-71.5-103.4-80.9-103.4 M-102.2-61.5h9
			c6,0,10.4-1.1,13.3-3.4c2.9-2.2,4.9-6,5.9-11.3c1-5,0.5-8.6-1.3-10.7c-1.9-2.1-5.6-3.1-11.2-3.1h-10.1L-102.2-61.5 M-80.9-100.6
			c8.6,0,14.8,2.2,18.7,6.7c3.9,4.5,5.1,10.8,3.5,18.8c-0.6,3.3-1.7,6.3-3.3,9.1c-1.5,2.7-3.5,5.3-6,7.5c-3,2.8-6.2,4.7-9.8,5.9
			c-3.6,1.2-8.2,1.8-13.8,1.8h-12.7l-3.5,18h-14.8l13.2-67.9H-80.9"/>
	</g>
	<g id="g3492" transform="translate(311.583,116.3066)">
		<path id="path3494" class="st3" d="M-175.7,31.6c-0.4,0-0.8-0.2-1.1-0.5c-0.3-0.3-0.4-0.7-0.3-1.2l5.8-30c0.6-2.9,0.4-4.9-0.4-5.8
			c-0.5-0.5-2-1.4-6.3-1.4h-10.6l-7.3,37.8c-0.1,0.7-0.7,1.1-1.4,1.1h-14.7c-0.4,0-0.8-0.2-1.1-0.5c-0.3-0.3-0.4-0.7-0.3-1.2
			l13.2-67.9c0.1-0.7,0.7-1.1,1.4-1.1h14.7c0.4,0,0.8,0.2,1.1,0.5c0.3,0.3,0.4,0.7,0.3,1.2l-3.2,16.4h11.4c8.7,0,14.5,1.5,18,4.7
			c3.5,3.2,4.6,8.3,3.2,15.2l-6.1,31.6c-0.1,0.7-0.7,1.1-1.4,1.1H-175.7z"/>
	</g>
	<g id="g3496" transform="translate(293.6611,271.0571)">
		<path id="path3498" class="st4" d="M-166.1-195.2h-14.7c-1.3,0-2.5,0.9-2.7,2.3l-13.2,67.9c-0.2,0.8,0.1,1.7,0.6,2.3
			c0.5,0.6,1.3,1,2.2,1h14.7c1.3,0,2.5-0.9,2.7-2.3l7.1-36.6h9.4c4.4,0,5.3,0.9,5.3,1c0.3,0.3,0.6,1.6,0,4.6l-5.8,30
			c-0.2,0.8,0.1,1.7,0.6,2.3c0.5,0.6,1.3,1,2.2,1h14.9c1.3,0,2.5-0.9,2.7-2.3l6.1-31.6c1.4-7.4,0.2-13-3.7-16.5
			c-3.7-3.4-9.9-5-18.9-5h-9.7l2.9-14.7c0.2-0.8-0.1-1.7-0.6-2.3C-164.5-194.8-165.3-195.2-166.1-195.2 M-166.1-192.4l-3.5,18h13.1
			c8.2,0,13.9,1.4,17,4.3c3.1,2.9,4.1,7.5,2.8,13.9l-6.1,31.6h-14.9l5.8-30c0.7-3.4,0.4-5.7-0.7-7c-1.2-1.2-3.6-1.9-7.4-1.9h-11.7
			l-7.6,38.9H-194l13.2-67.9H-166.1"/>
	</g>
	<g id="g3500" transform="translate(409.5498,145.3066)">
		<path id="path3502" class="st3" d="M-228.1-10.9c5.6,0,9.8-1,12.5-3.1c2.6-2,4.4-5.5,5.4-10.4c0.9-4.6,0.5-7.8-1-9.5
			c-1.6-1.8-5-2.6-10.2-2.6h-9l-5,25.6H-228.1z M-257.4,20.7c-0.4,0-0.8-0.2-1.1-0.5c-0.3-0.3-0.4-0.7-0.3-1.2l13.2-67.9
			c0.1-0.7,0.7-1.1,1.4-1.1h28.4c8.9,0,15.6,2.4,19.8,7.2c4.2,4.8,5.5,11.5,3.9,20c-0.7,3.4-1.8,6.6-3.4,9.5
			c-1.6,2.9-3.7,5.5-6.3,7.9c-3.1,2.9-6.6,5-10.4,6.2c-3.7,1.2-8.5,1.8-14.2,1.8H-238l-3.3,16.9c-0.1,0.7-0.7,1.1-1.4,1.1H-257.4z"
			/>
	</g>
	<g id="g3504" transform="translate(407.0391,197.3071)">
		<path id="path3506" class="st4" d="M-226.7-87.1h7.8c6.3,0,8.4,1.4,9.2,2.2c1.2,1.4,1.5,4.2,0.7,8.3c-0.9,4.5-2.5,7.8-4.9,9.6
			c-2.4,1.9-6.3,2.8-11.6,2.8h-5.6L-226.7-87.1z M-213.3-103.4h-28.4c-1.3,0-2.5,0.9-2.7,2.3l-13.2,67.9c-0.2,0.8,0.1,1.7,0.6,2.3
			c0.5,0.6,1.3,1,2.2,1h14.8c1.3,0,2.5-0.9,2.7-2.3l3.1-15.8h10.4c5.9,0,10.8-0.6,14.7-1.9c4-1.3,7.6-3.5,10.9-6.5
			c2.7-2.5,4.9-5.2,6.6-8.2c1.7-3,2.9-6.3,3.6-9.9c1.7-8.9,0.3-16-4.2-21.2C-196.9-100.8-203.9-103.4-213.3-103.4 M-234.5-61.5h9
			c6,0,10.4-1.1,13.3-3.4c2.9-2.2,4.9-6,5.9-11.3c1-5,0.5-8.6-1.3-10.7c-1.9-2.1-5.6-3.1-11.2-3.1H-229L-234.5-61.5 M-213.3-100.6
			c8.6,0,14.8,2.2,18.7,6.7s5.1,10.8,3.5,18.8c-0.6,3.3-1.7,6.3-3.3,9.1c-1.5,2.7-3.5,5.3-6,7.5c-3,2.8-6.2,4.7-9.8,5.9
			c-3.6,1.2-8.2,1.8-13.8,1.8h-12.7l-3.5,18h-14.8l13.2-67.9H-213.3"/>
	</g>
</g>
</svg>
