<?xml version="1.0" encoding="utf-8"?>
<!-- Generator: Adobe Illustrator 23.0.3, SVG Export Plug-In . SVG Version: 6.00 Build 0)  -->
<svg version="1.1" id="Layer_1" xmlns="http://www.w3.org/2000/svg" xmlns:xlink="http://www.w3.org/1999/xlink" x="0px" y="0px"
	 viewBox="0 0 250 250" style="enable-background:new 0 0 250 250;" xml:space="preserve">
<style type="text/css">
	.st0{fill:#1E779C;}
	.st1{fill:#2896B8;}
	.st2{fill:#3EB5D0;}
</style>
<g id="g3438" transform="matrix(1.25,0,0,-1.25,-4.4,394.29875)">
</g>
<g>
	<path class="st0" d="M0,125c0,49.5,28.7,92.2,70.5,112.5L10.8,74.1C3.9,89.7,0,106.9,0,125z"/>
	<path class="st0" d="M127.2,135.9l-37.5,109c11.2,3.3,23,5.1,35.3,5.1c14.6,0,28.5-2.5,41.5-7.1c-0.4-0.6-0.7-1.1-0.9-1.7
		L127.2,135.9z"/>
	<path class="st0" d="M209.4,118.7c0-15.5-5.5-26.2-10.3-34.5c-6.4-10.3-12.3-19.1-12.3-29.3c0-11.5,8.7-22.2,21-22.2
		c0.6,0,1.1,0.1,1.6,0.1C187.2,12.4,157.6,0,125,0C81.4,0,42.9,22.4,20.6,56.4c2.9,0.1,5.7,0.2,8.1,0.2c13.1,0,33.3-1.6,33.3-1.6
		c6.8-0.4,7.5,9.5,0.8,10.3c0,0-6.8,0.8-14.3,1.2L94,201.8l27.4-82.1l-19.5-53.3c-6.8-0.4-13.1-1.2-13.1-1.2
		c-6.8-0.4-5.9-10.7,0.8-10.3c0,0,20.7,1.6,32.9,1.6c13.1,0,33.3-1.6,33.3-1.6c6.8-0.4,7.5,9.5,0.8,10.3c0,0-6.8,0.8-14.3,1.2
		l45.2,134.4l12.5-41.6C205.3,141.8,209.4,129.4,209.4,118.7z"/>
	<path class="st0" d="M235.5,77.9c0,12.7-2.4,26.9-9.5,44.8L187.9,233C225,211.4,250,171.1,250,125c0-21.7-5.5-42.2-15.3-60
		C235.2,69,235.5,73.3,235.5,77.9z"/>
</g>
<path class="st1" d="M196.8,54.9c0-11.5,8.7-22.2,21-22.2c0.6,0,1.1,0.1,1.6,0.1C197.2,12.4,167.6,0,135,0
	C91.4,0,52.9,22.4,30.6,56.4c2.9,0.1,5.7,0.2,8.1,0.2c13.1,0,33.3-1.6,33.3-1.6c6.8-0.4,7.5,9.5,0.8,10.3c0,0-6.8,0.8-14.3,1.2
	L75.8,118c11.8,4.2,24.6,6.5,38,6.5c5.5,0,11-0.4,16.4-1.2l1.2-3.6l-19.5-53.3c-6.8-0.4-13.1-1.2-13.1-1.2
	c-6.8-0.4-5.9-10.7,0.8-10.3c0,0,20.7,1.6,32.9,1.6c13.1,0,33.3-1.6,33.3-1.6c6.8-0.4,7.5,9.5,0.8,10.3c0,0-6.8,0.8-14.3,1.2
	l15,44.8c15.3-8.2,28.2-19.8,37.7-33.7C200.4,69.9,196.8,62.9,196.8,54.9z"/>
<path class="st2" d="M132.4,0C93.2,0,58.3,18.1,35.3,46.4c20.1,4.2,42.2,6.5,65.4,6.5c43.9,0,83.9-8.3,114-21.9
	C192.7,11.7,164,0,132.4,0z"/>
</svg>
