<?xml version="1.0" encoding="utf-8"?>
<!-- Generator: Adobe Illustrator 21.1.0, SVG Export Plug-In . SVG Version: 6.00 Build 0)  -->
<svg version="1.1" id="Layer_1" xmlns="http://www.w3.org/2000/svg" xmlns:xlink="http://www.w3.org/1999/xlink" x="0px" y="0px"
	 viewBox="0 0 150 150" style="enable-background:new 0 0 150 150;" xml:space="preserve">
<style type="text/css">
	.st0{fill:#F5851F;}
</style>
<g>
	<g>
		<path class="st0" d="M74.9,128.1c-0.8,0-1.5,0.3-2.1,0.8c-0.5,0.5-0.9,1.3-0.9,2c0,0.8,0.3,1.5,0.9,2.1c0.5,0.5,1.3,0.8,2.1,0.8
			c0.8,0,1.5-0.3,2.1-0.8c0.5-0.5,0.9-1.3,0.9-2.1c0-0.8-0.3-1.5-0.9-2C76.5,128.5,75.7,128.1,74.9,128.1z M134.3,80.3l-9.8-2.3
			v-3.8c5.4-3.4,9-9.4,9-16.2V47.2c0-10.6-8.7-19.1-19.3-19.1c-5.8,0-10.9,2.5-14.5,6.5c-3.1-10.6-13-18.4-24.8-18.4h0
			c-11.8,0-21.7,7.8-24.8,18.5c-3.5-4-8.7-6.5-14.5-6.5c-10.7,0-19.3,8.6-19.3,19.1V58c0,6.8,3.6,12.8,9,16.2V78l-9.8,2.3
			C6.4,82.5,0,90.6,0,100v19.5c0,1.6,1.3,2.9,2.9,2.9h23.4v8.7c0,1.6,1.3,2.9,2.9,2.9h32.1c1.6,0,2.9-1.3,2.9-2.9s-1.3-2.9-2.9-2.9
			H48.3v-12.8c0-1.6-1.3-2.9-2.9-2.9s-2.9,1.3-2.9,2.9v12.8H32.2v-13.1c0-9.8,6.7-18.3,16.4-20.6L63,91.1l9.3,20.9
			c0.5,1.1,1.5,1.7,2.7,1.7h0c1.2,0,2.2-0.7,2.7-1.7l9.3-20.8l14.4,3.4c9.7,2.3,16.4,10.8,16.4,20.6v3.2c-0.1,0.3-0.2,0.7-0.2,1.1
			c0,0.4,0.1,0.8,0.2,1.1v7.6h-10.2v-12.8c0-1.6-1.3-2.9-2.9-2.9c-1.6,0-2.9,1.3-2.9,2.9v12.8H87.3c-1.6,0-2.9,1.3-2.9,2.9
			s1.3,2.9,2.9,2.9h33.3c1.6,0,2.9-1.3,2.9-2.9v-8.7h23.5c1.6,0,2.9-1.3,2.9-2.9V100C150,90.6,143.6,82.5,134.3,80.3z M114.3,33.8
			c7.4,0,13.5,6,13.5,13.3v0.7v0.3h-8.4c-6.3,0-12.5-1.6-18-4.8C103,37.9,108.2,33.8,114.3,33.8z M100.8,57.5c0-0.3,0-7.8,0-7.8
			c5.8,2.8,12.1,4.3,18.6,4.3h8.4v4c0,7.4-6,13.3-13.5,13.3c-7.4,0-13.5-6-13.5-13.3V57.5z M55.1,41.6c0-10.9,8.9-19.7,19.9-19.7
			S95,30.7,95,41.6V42l-10.9-6.3c-1.2-0.7-2.8-0.4-3.7,0.6c-4.2,5-10.4,7.9-17,7.9h-8.2V41.6z M22.3,47.9v-0.7
			c0-7.4,6-13.3,13.5-13.3c6.1,0,11.3,4.1,12.9,9.6c-5.5,3.1-11.7,4.8-18,4.8h-8.4V47.9z M22.3,58v-4h8.4c6.5,0,12.8-1.5,18.6-4.3
			V58c0,7.4-6,13.3-13.5,13.3C28.3,71.3,22.3,65.3,22.3,58z M26.4,115.1v1.5h-8.8v-12.9c0-1.6-1.3-2.9-2.9-2.9
			c-1.6,0-2.9,1.3-2.9,2.9v12.9H5.9V100c0-6.7,4.6-12.4,11.2-14l9.3-2.2l6.1,14.4C28.6,102.8,26.4,108.7,26.4,115.1z M35.7,91.1
			l-4.4-10.5c0-0.1,0-0.1,0-0.2v-3.7c1.4,0.3,2.9,0.5,4.4,0.5c1.5,0,3-0.2,4.4-0.5v3.5c0,0.1,0,0.1,0,0.2c0,0.1,0,0.2,0,0.3
			L35.7,91.1z M47.3,88.8c-1.7,0.4-3.4,1-5,1.7l2.9-6.8l9.3,2.2c0.7,0.2,1.4,0.4,2.1,0.7L47.3,88.8z M61.8,82.8
			c-1.8-1.1-3.9-2-6-2.5L46,78v-3.8c2.4-1.5,4.5-3.6,6.1-6c2.2,4.3,5.6,7.8,9.7,10.3V82.8z M82.3,87.1L75,103.6l-7.3-16.5v-6
			c2.3,0.7,4.8,1.1,7.4,1.1c2.5,0,5-0.4,7.3-1V87.1z M75,76.3c-11,0-19.9-8.8-19.9-19.7v-6.7h8.2c7.5,0,14.6-2.9,19.8-8.1l11.8,6.9
			v8.6C94.6,67.9,85.8,76.3,75,76.3z M88.2,78.6L88.2,78.6c4.2-2.5,7.6-6,9.8-10.3c1.5,2.4,3.6,4.4,6,5.9V78l-9.8,2.3
			c-2.1,0.5-4.2,1.4-6,2.5V78.6z M102.7,88.8l-9.3-2.2c0.7-0.3,1.4-0.5,2.2-0.7l9.3-2.2l2.9,6.8C106.1,89.8,104.4,89.3,102.7,88.8z
			 M109.8,80.6c0-0.1,0-0.2,0-0.3c0,0,0-0.1,0-0.1v-3.6c1.4,0.3,2.9,0.5,4.4,0.5c1.5,0,3-0.2,4.4-0.5v3.7c0,0.1,0,0.1,0,0.2
			l-4.5,10.6L109.8,80.6z M144.1,116.5h-5.9v-12.9c0-1.6-1.3-2.9-2.9-2.9c-1.6,0-2.9,1.3-2.9,2.9v12.9h-8.8v-1.5
			c0-6.3-2.2-12.3-6-16.9l6.1-14.4L133,86c6.6,1.6,11.2,7.3,11.2,14V116.5z M65.2,52.5c-0.8,0-1.5,0.3-2.1,0.8
			c-0.5,0.5-0.9,1.3-0.9,2c0,0.8,0.3,1.5,0.9,2c0.5,0.5,1.3,0.9,2.1,0.9c0.8,0,1.5-0.3,2.1-0.9c0.5-0.5,0.9-1.3,0.9-2
			c0-0.8-0.3-1.5-0.9-2C66.7,52.8,65.9,52.5,65.2,52.5z M84.8,52.5c-0.8,0-1.5,0.3-2.1,0.8c-0.5,0.5-0.9,1.3-0.9,2
			c0,0.8,0.3,1.5,0.9,2c0.5,0.5,1.3,0.9,2.1,0.9c0.8,0,1.5-0.3,2.1-0.9c0.5-0.5,0.9-1.3,0.9-2c0-0.8-0.3-1.5-0.9-2
			C86.3,52.8,85.5,52.5,84.8,52.5z M76.5,63.1c-0.9,0.9-2.3,0.9-3.1,0c-1.1-1.1-3-1.1-4.1,0c-1.1,1.1-1.1,3,0,4.1
			c1.6,1.6,3.6,2.3,5.7,2.3s4.1-0.8,5.7-2.3c1.1-1.1,1.1-3,0-4.1C79.5,62,77.6,62,76.5,63.1z"/>
	</g>
</g>
</svg>
