<?xml version="1.0" encoding="utf-8"?>
<!-- Generator: Adobe Illustrator 21.1.0, SVG Export Plug-In . SVG Version: 6.00 Build 0)  -->
<svg version="1.1" id="Layer_1" xmlns="http://www.w3.org/2000/svg" xmlns:xlink="http://www.w3.org/1999/xlink" x="0px" y="0px"
	 viewBox="0 0 150 150" style="enable-background:new 0 0 150 150;" xml:space="preserve">
<style type="text/css">
	.st0{fill:#F5851F;}
</style>
<g>
	<g>
		<path class="st0" d="M142.5,75H140V22c0-7-5.6-12.6-12.5-12.6h-105C15.6,9.4,10,15,10,22v37.9H7.5c-4.1,0-7.5,3.4-7.5,7.6v65.6
			c0,4.2,3.4,7.6,7.5,7.6h95c1.4,0,2.5-1.1,2.5-2.5c0-7-5.6-12.6-12.5-12.6H85v-15.1h30v22.7c0,4.2,3.4,7.6,7.5,7.6h20
			c4.1,0,7.5-3.4,7.5-7.6V82.6C150,78.4,146.6,75,142.5,75z M55,133.1c0,1.4-1.1,2.5-2.5,2.5h-45c-1.4,0-2.5-1.1-2.5-2.5v-2.5h50
			V133.1z M55,125.5H5V67.4c0-1.4,1.1-2.5,2.5-2.5h45c1.4,0,2.5,1.1,2.5,2.5V125.5z M92.5,130.5c3.2,0,6,2,7.1,5h-40
			c0.3-0.8,0.5-1.7,0.5-2.5v-2.5H92.5z M60,125.5v-15.1h5v15.1H60z M70,125.5v-15.1h10v15.1H70z M115,105.3H60V90.1h55V105.3z
			 M115,82.6v2.5H60V67.4c0-1.2-0.3-2.4-0.9-3.4c0,0,0.1,0,0.1-0.1l24.7-25c1-1,0.9-2.6-0.1-3.6c-1-0.9-2.5-0.9-3.5,0l-24.8,25
			c-0.1,0.1-0.1,0.1-0.1,0.2c-1-0.5-2-0.7-3.1-0.7H15V22c0-4.2,3.4-7.6,7.5-7.6h105c4.1,0,7.5,3.4,7.5,7.6v53h-12.5
			C118.4,75,115,78.4,115,82.6z M145,133.1c0,1.4-1.1,2.5-2.5,2.5h-20c-1.4,0-2.5-1.1-2.5-2.5v-2.5h25V133.1z M145,125.5h-25V82.6
			c0-1.4,1.1-2.5,2.5-2.5h20c1.4,0,2.5,1.1,2.5,2.5V125.5z M29.9,90.6c-1-1-2.6-1-3.5,0l-10.6,10.7c-1,1-1,2.6-0.1,3.6
			c1,1,2.5,1,3.5,0.1c0,0,0,0,0.1-0.1l10.6-10.7C30.3,93.4,29.4,91.9,29.9,90.6z M41.3,90.6l-10.6,10.7c-1,1-1,2.6-0.1,3.6
			c1,1,2.5,1,3.5,0.1c0,0,0,0,0.1-0.1l10.6-10.7c1-1,0.9-2.6-0.1-3.6C43.8,89.6,42.3,89.6,41.3,90.6z M95.7,35.3L71,60.3
			c-1,1-1,2.6-0.1,3.6c1,1,2.5,1,3.5,0.1c0,0,0,0,0.1-0.1l24.8-25c1-1,0.9-2.6-0.1-3.6C98.2,34.4,96.7,34.4,95.7,35.3z M134.3,97.4
			l-7.1,7.1c-1,1-1,2.6-0.1,3.6c1,1,2.5,1,3.5,0.1c0,0,0,0,0.1-0.1l7.1-7.1c1-1,0.9-2.6-0.1-3.6C136.8,96.5,135.2,96.5,134.3,97.4z
			 M75,100.2c1.4,0,2.5-1.1,2.5-2.5c0-1.4-1.1-2.5-2.5-2.5h0c-1.4,0-2.5,1.1-2.5,2.5C72.5,99.1,73.7,100.3,75,100.2z M80,19.5H70
			c-1.4,0-2.5,1.1-2.5,2.5c0,1.4,1.1,2.5,2.5,2.5h10c1.4,0,2.5-1.1,2.5-2.5C82.5,20.6,81.4,19.5,80,19.5z"/>
	</g>
</g>
</svg>
