<?xml version="1.0" encoding="utf-8"?>
<!-- Generator: Adobe Illustrator 21.1.0, SVG Export Plug-In . SVG Version: 6.00 Build 0)  -->
<svg version="1.1" id="Layer_1" xmlns="http://www.w3.org/2000/svg" xmlns:xlink="http://www.w3.org/1999/xlink" x="0px" y="0px"
	 viewBox="0 0 150 150" style="enable-background:new 0 0 150 150;" xml:space="preserve">
<style type="text/css">
	.st0{fill:#F5851F;}
</style>
<g>
	<g>
		<path class="st0" d="M147.1,97.9h-4.9c-0.7-2.6-1.8-5-3-7.3l3.4-3.4c1.1-1.1,1.1-3,0-4.1l-9.9-9.9c-1.1-1.1-3-1.1-4.1,0l-3.4,3.4
			c-2.3-1.3-4.8-2.3-7.4-3.1v-4.8c0-1.6-1.3-2.9-2.9-2.9h-11.7c1.2-4.1,1.8-8.5,1.8-13.2c0-14-5.5-27.2-15.4-37.1
			C79.6,5.5,66.5,0,52.5,0c0,0,0,0,0,0C23.5,0,0,23.5,0,52.5c0,13.2,4.9,24.4,14.5,33.3c9.6,8.8,15.7,20.7,17.1,33.3l0,0.1v23.3
			c0,4.2,3.4,7.6,7.6,7.6h26.5c4.2,0,7.6-3.4,7.6-7.6V133l9.6,9.6c1.1,1.1,3,1.1,4.1,0l3.4-3.4c2.3,1.3,4.8,2.3,7.3,3v4.8
			c0,1.6,1.3,2.9,2.9,2.9h14c1.6,0,2.9-1.3,2.9-2.9v-4.9c2.6-0.7,5-1.8,7.3-3l3.4,3.4c1.1,1.1,3,1.1,4.1,0l9.9-9.9
			c1.1-1.1,1.1-3,0-4.1l-3.4-3.4c1.3-2.3,2.3-4.8,3-7.3h4.9c1.6,0,2.9-1.3,2.9-2.9v-14C150,99.2,148.7,97.9,147.1,97.9z M67.5,142.4
			c0,1-0.8,1.8-1.8,1.8H39.2c-1,0-1.8-0.8-1.8-1.8v-6.4h30V142.4z M67.5,130.1h-30v-8.2h30V130.1z M67.8,116h-5.4v-6.2
			c0-1.6-1.3-2.9-2.9-2.9c-1.6,0-2.9,1.3-2.9,2.9v6.2h-8.2V79.6c0-0.3,0-0.5-0.1-0.8l-6.4-23.2l0.9,0.9c1.1,1.1,3,1.1,4.1,0l4.8-4.8
			l4.8,4.8c1.1,1.1,3,1.1,4.1,0l3-3l-7,25.3c-0.1,0.3-0.1,0.5-0.1,0.8v9.1c0,1.6,1.3,2.9,2.9,2.9c1.6,0,2.9-1.3,2.9-2.9V80l6.7-24.4
			l1,1c0.6,0.6,1.3,0.9,2.1,0.9c0.7,0,1.5-0.3,2.1-0.9c1.1-1.1,1.1-3,0-4.1l-6.8-6.8c-1.1-1.1-3-1.1-4.1,0l-4.8,4.8l-4.8-4.8
			c-1.1-1.1-3-1.1-4.1,0l-4.8,4.8l-4.8-4.8c-1.1-1.1-3-1.1-4.1,0l-6.8,6.8c-1.1,1.1-1.1,3,0,4.1c1.1,1.1,3,1.1,4.1,0l2.2-2.2
			L42.5,80v36h-5.4c-2-13.2-8.6-25.4-18.7-34.6C10.1,73.7,5.9,64,5.9,52.5c0-25.7,20.9-46.6,46.6-46.6h0c12.4,0,24.1,4.8,32.9,13.6
			C94.2,28.3,99,40,99,52.5c0,11.5-4.2,21.3-12.6,28.9C76.4,90.6,69.9,102.9,67.8,116z M73.3,128.2v-9.1l0-0.1c0-0.3,0.1-0.7,0.1-1
			c0.7,2.5,1.7,4.8,3,7.1L73.3,128.2z M144.1,111.9h-4.2c-1.4,0-2.6,1-2.9,2.3c-0.8,3.5-2.1,6.8-4,9.8c-0.7,1.2-0.6,2.7,0.4,3.7l3,3
			l-5.8,5.8l-3-3c-1-1-2.5-1.1-3.7-0.4c-3,1.9-6.3,3.3-9.8,4c-1.3,0.3-2.3,1.5-2.3,2.9v4.2h-8.2v-4.2c0-1.4-1-2.6-2.3-2.9
			c-3.5-0.8-6.8-2.1-9.8-4c-1.2-0.7-2.7-0.6-3.7,0.4l-3,3l-5.8-5.8l3-3c1-1,1.1-2.5,0.4-3.7c-1.9-3-3.3-6.3-4.1-9.8
			c-0.3-1.3-1.5-2.3-2.9-2.3h-1c2.6-9.9,8-19,15.8-26.2c1.8-1.6,3.4-3.4,4.9-5.2c0,0,0,0,0.1,0c1.9-0.9,4-1.6,6-2
			c1.3-0.3,2.3-1.5,2.3-2.9v-4.2h8.2v4.2c0,1.4,1,2.6,2.3,2.9c3.5,0.8,6.8,2.1,9.8,4.1c1.2,0.7,2.7,0.6,3.7-0.4l3-3l5.8,5.8l-3,3
			c-1,1-1.1,2.5-0.4,3.7c1.9,3,3.3,6.3,4,9.8c0.3,1.4,1.5,2.3,2.9,2.3h4.2V111.9z M107.8,86.1c-12,0-21.7,9.7-21.7,21.7
			c0,12,9.7,21.7,21.7,21.7c12,0,21.7-9.7,21.7-21.7C129.5,95.9,119.8,86.1,107.8,86.1z M107.8,123.6c-8.7,0-15.8-7.1-15.8-15.8
			c0-8.7,7.1-15.8,15.8-15.8c8.7,0,15.8,7.1,15.8,15.8C123.6,116.5,116.5,123.6,107.8,123.6z M107.8,96.7c-6.1,0-11.1,5-11.1,11.1
			c0,6.1,5,11.1,11.1,11.1c6.1,0,11.1-5,11.1-11.1C118.9,101.7,113.9,96.7,107.8,96.7z M107.8,113.1c-2.9,0-5.3-2.4-5.3-5.3
			c0-2.9,2.4-5.3,5.3-5.3c2.9,0,5.3,2.4,5.3,5.3C113.1,110.7,110.7,113.1,107.8,113.1z M59.5,96.8c-0.8,0-1.5,0.3-2.1,0.9
			c-0.5,0.5-0.9,1.3-0.9,2.1c0,0.8,0.3,1.5,0.9,2.1c0.5,0.6,1.3,0.9,2.1,0.9c0.8,0,1.5-0.3,2.1-0.9c0.5-0.5,0.9-1.3,0.9-2.1
			c0-0.8-0.3-1.5-0.9-2.1C61,97.1,60.3,96.8,59.5,96.8z M131.2,50.6c1.6,0,2.9-1.3,2.9-2.9V18.7c0-1.6-1.3-2.9-2.9-2.9
			s-2.9,1.3-2.9,2.9v28.9C128.3,49.3,129.6,50.6,131.2,50.6z M131.2,62.4c0.8,0,1.5-0.3,2.1-0.9c0.5-0.5,0.9-1.3,0.9-2.1
			c0-0.8-0.3-1.5-0.9-2.1c-0.5-0.5-1.3-0.9-2.1-0.9c-0.8,0-1.5,0.3-2.1,0.9c-0.5,0.5-0.9,1.3-0.9,2.1c0,0.8,0.3,1.5,0.9,2.1
			C129.7,62.1,130.5,62.4,131.2,62.4z"/>
	</g>
</g>
</svg>
