<?xml version="1.0" encoding="utf-8"?>
<!-- Generator: Adobe Illustrator 21.1.0, SVG Export Plug-In . SVG Version: 6.00 Build 0)  -->
<svg version="1.1" id="Layer_1" xmlns="http://www.w3.org/2000/svg" xmlns:xlink="http://www.w3.org/1999/xlink" x="0px" y="0px"
	 viewBox="0 0 150 150" style="enable-background:new 0 0 150 150;" xml:space="preserve">
<style type="text/css">
	.st0{fill:#F5851F;}
</style>
<g>
	<g>
		<path class="st0" d="M147.1,0H2.9C1.3,0,0,1.3,0,2.9v128.3c0,1.6,1.3,2.9,2.9,2.9h60.8c1.6,0,2.9-1.3,2.9-2.9
			c0-1.6-1.3-2.9-2.9-2.9H5.9V26.9c0.1,0,0.2,0,0.3,0h138v101.4h-5.7c-1.6,0-2.9,1.3-2.9,2.9c0,1.6,1.3,2.9,2.9,2.9h8.6
			c1.6,0,2.9-1.3,2.9-2.9V2.9C150,1.3,148.7,0,147.1,0z M144.1,21.1H6.2c-0.1,0-0.2,0-0.3,0V5.9h138.3V21.1z M76.2,128.3
			c-0.8,0-1.5,0.3-2.1,0.9c-0.5,0.5-0.9,1.3-0.9,2.1c0,0.8,0.3,1.5,0.9,2.1c0.5,0.5,1.3,0.9,2.1,0.9c0.8,0,1.5-0.3,2.1-0.9
			c0.5-0.5,0.9-1.3,0.9-2.1c0-0.8-0.3-1.5-0.9-2.1C77.7,128.6,76.9,128.3,76.2,128.3z M65.1,16.4h66.2c1.6,0,2.9-1.3,2.9-2.9
			c0-1.6-1.3-2.9-2.9-2.9H65.1c-1.6,0-2.9,1.3-2.9,2.9C62.1,15.1,63.4,16.4,65.1,16.4z M30.5,16.4c0.8,0,1.5-0.3,2.1-0.9
			c0.5-0.5,0.9-1.3,0.9-2.1c0-0.8-0.3-1.5-0.9-2.1c-0.5-0.5-1.3-0.9-2.1-0.9c-0.8,0-1.5,0.3-2.1,0.9c-0.5,0.5-0.9,1.3-0.9,2.1
			c0,0.8,0.3,1.5,0.9,2.1C28.9,16.1,29.7,16.4,30.5,16.4z M18.8,16.4c0.8,0,1.5-0.3,2.1-0.9c0.5-0.5,0.9-1.3,0.9-2.1
			c0-0.8-0.3-1.5-0.9-2.1c-0.5-0.5-1.3-0.9-2.1-0.9c-0.8,0-1.5,0.3-2.1,0.9c-0.5,0.5-0.9,1.3-0.9,2.1c0,0.8,0.3,1.5,0.9,2.1
			C17.2,16.1,18,16.4,18.8,16.4z M42.2,16.4c0.8,0,1.5-0.3,2.1-0.9c0.5-0.5,0.9-1.3,0.9-2.1c0-0.8-0.3-1.5-0.9-2.1
			c-0.5-0.5-1.3-0.9-2.1-0.9c-0.8,0-1.5,0.3-2.1,0.9c-0.5,0.5-0.9,1.3-0.9,2.1c0,0.8,0.3,1.5,0.9,2.1C40.7,16.1,41.4,16.4,42.2,16.4
			z M86.8,106.7l-1.3-7.5l5.4-5.3c1-0.9,1.3-2.3,0.9-3.6c-0.4-1.3-1.5-2.2-2.8-2.4l-7.5-1.1L78.1,80c0,0,0,0,0,0
			c-0.6-1.2-1.8-2-3.2-2c0,0,0,0,0,0c-1.3,0-2.6,0.7-3.2,2l-3.4,6.8L61,87.9c-1.3,0.2-2.4,1.1-2.8,2.4c-0.4,1.3-0.1,2.7,0.9,3.6
			l5.4,5.3l-1.3,7.5c-0.2,1.3,0.3,2.6,1.4,3.4c0.6,0.4,1.3,0.7,2.1,0.7c0.6,0,1.1-0.1,1.6-0.4l6.7-3.5l6.7,3.5
			c1.2,0.6,2.6,0.5,3.7-0.3C86.5,109.3,87.1,108,86.8,106.7z M80.6,95.8c-0.8,0.8-1.2,2-1,3.1l0.7,4l-3.6-1.9c-1-0.5-2.2-0.5-3.3,0
			l-3.6,1.9l0.7-4c0.2-1.1-0.2-2.3-1-3.1L66.5,93l4-0.6c1.1-0.2,2.1-0.9,2.6-1.9l1.8-3.7l1.8,3.7c0.5,1,1.5,1.8,2.6,1.9l4,0.6
			L80.6,95.8z M50.4,90.3c-0.4-1.3-1.5-2.2-2.8-2.4l-7.5-1.1L36.7,80c0,0,0,0,0,0c-0.6-1.2-1.8-2-3.2-2c0,0,0,0,0,0
			c-1.3,0-2.6,0.7-3.2,2L27,86.8l-7.5,1.1c-1.3,0.2-2.4,1.1-2.8,2.4c-0.4,1.3-0.1,2.7,0.9,3.6l5.4,5.3l-1.3,7.5
			c-0.2,1.3,0.3,2.6,1.4,3.4c0.6,0.4,1.3,0.7,2.1,0.7c0.6,0,1.1-0.1,1.6-0.4l6.7-3.5l6.7,3.5c1.2,0.6,2.6,0.5,3.7-0.3
			c1.1-0.8,1.6-2.1,1.4-3.4l-1.3-7.5l5.4-5.3C50.5,92.9,50.8,91.6,50.4,90.3z M39.1,95.8c-0.8,0.8-1.2,2-1,3.1l0.7,4l-3.6-1.9
			c-1-0.5-2.2-0.5-3.3,0l-3.6,1.9l0.7-4c0.2-1.1-0.2-2.3-1-3.1L25.1,93l4-0.6c1.1-0.2,2.1-0.9,2.6-1.9l1.8-3.7l1.8,3.7
			c0.5,1,1.5,1.8,2.6,1.9l4,0.6L39.1,95.8z M133.3,90.3c-0.4-1.3-1.5-2.2-2.8-2.4l-7.5-1.1l-3.4-6.8c-0.6-1.2-1.8-2-3.2-2
			c0,0,0,0,0,0c-1.3,0-2.6,0.7-3.2,2c0,0,0,0,0,0l-3.4,6.8l-7.5,1.1c-1.3,0.2-2.4,1.1-2.8,2.4c-0.4,1.3-0.1,2.7,0.9,3.6l5.4,5.3
			l-1.3,7.5c-0.2,1.3,0.3,2.6,1.4,3.4c1.1,0.8,2.5,0.9,3.7,0.3l6.7-3.5l6.7,3.5c0.5,0.3,1.1,0.4,1.6,0.4c0.7,0,1.4-0.2,2.1-0.7
			c1.1-0.8,1.6-2.1,1.4-3.4l-1.3-7.5l5.4-5.3C133.4,92.9,133.7,91.6,133.3,90.3z M122,95.9c-0.8,0.8-1.2,2-1,3.1l0.7,4l-3.6-1.9
			c-0.5-0.3-1.1-0.4-1.6-0.4c-0.6,0-1.1,0.1-1.6,0.4l-3.6,1.9l0.7-4c0.2-1.1-0.2-2.3-1-3.1L108,93l4-0.6c1.1-0.2,2.1-0.9,2.6-1.9
			l1.8-3.7l1.8,3.7c0.5,1,1.5,1.8,2.6,1.9l4,0.6L122,95.9z M134.2,69.1V37.5c0-1.6-1.3-2.9-2.9-2.9H18.8c-1.6,0-2.9,1.3-2.9,2.9
			v31.6c0,1.6,1.3,2.9,2.9,2.9h112.5C132.9,72.1,134.2,70.8,134.2,69.1z M128.3,66.2H21.7V53.3h43.4c1.6,0,2.9-1.3,2.9-2.9
			c0-1.6-1.3-2.9-2.9-2.9H21.7v-7h106.6V66.2z M138.4,136.5c-1.7,0-3.4,0.4-4.8,1.2c-1.4-3.7-5.1-6.4-9.3-6.4c-2.7,0-5.2,1.1-7,2.9
			c-1.8-1.8-4.3-2.9-7-2.9c-1.5,0-2.9,0.3-4.1,0.9v-17.3c0-5.5-4.5-10-10-10c-5.5,0-10,4.5-10,10v32.2c0,1.6,1.3,2.9,2.9,2.9
			c1.6,0,2.9-1.3,2.9-2.9v-32.2c0-2.3,1.8-4.1,4.1-4.1c2.3,0,4.1,1.8,4.1,4.1v32.2c0,1.6,1.3,2.9,2.9,2.9c1.6,0,2.9-1.3,2.9-2.9
			v-5.8c0-2.3,1.8-4.1,4.1-4.1c2.3,0,4.1,1.8,4.1,4.1v5.8c0,1.6,1.3,2.9,2.9,2.9c1.6,0,2.9-1.3,2.9-2.9v-5.8c0-2.3,1.8-4.1,4.1-4.1
			c2.3,0,4.1,1.8,4.1,4.1v5.8c0,1.6,1.3,2.9,2.9,2.9c1.6,0,2.9-1.3,2.9-2.9v-0.6c0-2.3,1.8-4.1,4.1-4.1c2.3,0,4.1,1.8,4.1,4.1
			c0,1.6,1.3,2.9,2.9,2.9c1.6,0,2.9-1.3,2.9-2.9C148.4,141,143.9,136.5,138.4,136.5z M78.2,53.3c0.8,0,1.5-0.3,2.1-0.9
			c0.5-0.5,0.9-1.3,0.9-2.1c0-0.8-0.3-1.5-0.9-2.1c-0.5-0.5-1.3-0.9-2.1-0.9c-0.8,0-1.5,0.3-2.1,0.9c-0.5,0.5-0.9,1.3-0.9,2.1
			c0,0.8,0.3,1.5,0.9,2.1C76.7,53,77.5,53.3,78.2,53.3z"/>
	</g>
</g>
</svg>
